<svg xmlns="http://www.w3.org/2000/svg" viewBox="0 0 100 100">
<defs>
<linearGradient id="bg" x1="0" y1="0" x2="0" y2="1"><stop offset="0" stop-color="#E9ECF0"/><stop offset="1" stop-color="#B9C0CA"/></linearGradient>
<linearGradient id="hl" x1="0" y1="0" x2="0" y2="1"><stop offset="0" stop-color="#fff" stop-opacity=".45"/><stop offset=".5" stop-color="#fff" stop-opacity="0"/></linearGradient>
<filter id="sh" x="-20%" y="-20%" width="140%" height="140%"><feDropShadow dx="0" dy="1.2" stdDeviation="1.2" flood-opacity=".28"/></filter>
</defs>
<path d="M50 9C79.5 9 91 20.5 91 50S79.5 91 50 91 9 79.5 9 50 20.5 9 50 9Z" fill="url(#bg)"/>
<path d="M50 9C79.5 9 91 20.5 91 50S79.5 91 50 91 9 79.5 9 50 20.5 9 50 9Z" fill="url(#hl)" opacity=".55"/>
<path d="M50 9C79.5 9 91 20.5 91 50S79.5 91 50 91 9 79.5 9 50 20.5 9 50 9Z" fill="none" stroke="#fff" stroke-opacity=".35" stroke-width=".8"/>

<g transform="translate(27.200000000000003 27.200000000000003) scale(1.9)" fill="none" stroke="#4A4F58" stroke-width="1.6" stroke-linecap="round" stroke-linejoin="round" filter="url(#sh)"><path d="M10 16h.01"/><path d="M2.212 11.577a2 2 0 0 0-.212.896V18a2 2 0 0 0 2 2h16a2 2 0 0 0 2-2v-5.527a2 2 0 0 0-.212-.896L18.55 5.11A2 2 0 0 0 16.76 4H7.24a2 2 0 0 0-1.79 1.11z"/><path d="M21.946 12.013H2.054"/><path d="M6 16h.01"/></g>
</svg>
