<svg xmlns="http://www.w3.org/2000/svg" viewBox="0 0 100 100">
<defs>
<linearGradient id="bg" x1="0" y1="0" x2="0" y2="1"><stop offset="0" stop-color="#FFE27A"/><stop offset="1" stop-color="#F7B928"/></linearGradient>
<linearGradient id="hl" x1="0" y1="0" x2="0" y2="1"><stop offset="0" stop-color="#fff" stop-opacity=".45"/><stop offset=".5" stop-color="#fff" stop-opacity="0"/></linearGradient>
<filter id="sh" x="-20%" y="-20%" width="140%" height="140%"><feDropShadow dx="0" dy="1.2" stdDeviation="1.2" flood-opacity=".28"/></filter>
</defs>
<path d="M50 9C79.5 9 91 20.5 91 50S79.5 91 50 91 9 79.5 9 50 20.5 9 50 9Z" fill="url(#bg)"/>
<path d="M50 9C79.5 9 91 20.5 91 50S79.5 91 50 91 9 79.5 9 50 20.5 9 50 9Z" fill="url(#hl)" opacity=".55"/>
<path d="M50 9C79.5 9 91 20.5 91 50S79.5 91 50 91 9 79.5 9 50 20.5 9 50 9Z" fill="none" stroke="#fff" stroke-opacity=".35" stroke-width=".8"/>

<g transform="translate(27.200000000000003 27.200000000000003) scale(1.9)" fill="none" stroke="#6B4E00" stroke-width="1.6" stroke-linecap="round" stroke-linejoin="round" filter="url(#sh)"><path d="M13.4 2H6a2 2 0 0 0-2 2v16a2 2 0 0 0 2 2h12a2 2 0 0 0 2-2v-7.4"/><path d="M2 6h4"/><path d="M2 10h4"/><path d="M2 14h4"/><path d="M2 18h4"/><path d="M21.378 5.626a1 1 0 1 0-3.004-3.004l-5.01 5.012a2 2 0 0 0-.506.854l-.837 2.87a.5.5 0 0 0 .62.62l2.87-.837a2 2 0 0 0 .854-.506z"/></g>
</svg>
