<svg xmlns="http://www.w3.org/2000/svg" viewBox="0 0 100 100">
<defs>
<linearGradient id="can" x1="0" y1="0" x2="1" y2="0"><stop offset="0" stop-color="#D9DDE3" stop-opacity=".9"/><stop offset=".5" stop-color="#F4F6F8" stop-opacity=".95"/><stop offset="1" stop-color="#C9CED6" stop-opacity=".9"/></linearGradient>
</defs>
<path d="M30 20l12-6 8 12M52 12l16 4-4 14M36 16l30 2" fill="#fff" stroke="#9AA3AE" stroke-width="1.2"/>
<ellipse cx="50" cy="24" rx="30" ry="6" fill="#B8BFC9"/>
<path d="M20 24l7 62a6 6 0 0 0 6 5h34a6 6 0 0 0 6-5l7-62Z" fill="url(#can)" stroke="#AEB6C1" stroke-width="1"/>
<g stroke="#A5ADB8" stroke-width="1.6" stroke-linecap="round" opacity=".8"><path d="M36 34l3 48M50 34v48M64 34l-3 48"/></g>
<ellipse cx="50" cy="24" rx="30" ry="6" fill="none" stroke="#fff" stroke-opacity=".8"/>
</svg>
